<?xml version="1.0" encoding="utf-8"?>
<!-- Generator: Adobe Illustrator 16.0.0, SVG Export Plug-In . SVG Version: 6.00 Build 0)  -->
<!DOCTYPE svg PUBLIC "-//W3C//DTD SVG 1.1//EN" "http://www.w3.org/Graphics/SVG/1.1/DTD/svg11.dtd">
<svg version="1.1" id="Ebene_1" xmlns="http://www.w3.org/2000/svg" xmlns:xlink="http://www.w3.org/1999/xlink" x="0px" y="0px"
	 width="44px" height="47px" viewBox="0 0 44 47" enable-background="new 0 0 44 47" xml:space="preserve">
<g>
	<linearGradient id="SVGID_1_" gradientUnits="userSpaceOnUse" x1="37.2119" y1="3.7983" x2="37.2119" y2="32.1235">
		<stop  offset="0" style="stop-color:#B70E0C"/>
		<stop  offset="1" style="stop-color:#9A1915"/>
	</linearGradient>
	<polygon fill="url(#SVGID_1_)" points="30.424,31.057 33.709,32.123 44,17.962 33.709,3.798 30.424,4.867 39.936,17.962 	"/>
	<g>
		<polygon fill="#D39E46" points="23.166,0.371 6.518,5.782 6.518,9.239 21.912,4.238 33.913,20.757 35.945,17.962 		"/>
		<polygon fill="#D39E46" points="0,14.751 0,32.257 3.288,33.324 3.288,17.14 22.71,10.83 20.678,8.032 		"/>
		<polygon fill="#D39E46" points="6.518,41.227 23.166,46.637 25.2,43.84 9.804,38.838 9.804,18.417 6.518,19.485 		"/>
		<polygon fill="#D39E46" points="33.709,43.211 44,29.048 41.969,26.251 32.454,39.345 13.032,33.035 13.032,36.491 		"/>
	</g>
</g>
<g>
</g>
<g>
</g>
<g>
</g>
<g>
</g>
<g>
</g>
<g>
</g>
<g>
</g>
<g>
</g>
<g>
</g>
<g>
</g>
<g>
</g>
<g>
</g>
<g>
</g>
<g>
</g>
<g>
</g>
</svg>
