<?xml version="1.0" encoding="utf-8"?>
<!-- Generator: Adobe Illustrator 16.0.0, SVG Export Plug-In . SVG Version: 6.00 Build 0)  -->
<!DOCTYPE svg PUBLIC "-//W3C//DTD SVG 1.1//EN" "http://www.w3.org/Graphics/SVG/1.1/DTD/svg11.dtd">
<svg version="1.1" id="Ebene_1" xmlns="http://www.w3.org/2000/svg" xmlns:xlink="http://www.w3.org/1999/xlink" x="0px" y="0px"
	 width="545.841px" height="142px" viewBox="0 0 545.841 142" enable-background="new 0 0 545.841 142" xml:space="preserve">
<g>
	<g>
		<polygon fill="#FFFFFF" points="93.377,94.178 103.467,97.457 135.051,53.986 103.467,10.516 93.377,13.794 122.578,53.986 		"/>
		<linearGradient id="SVGID_1_" gradientUnits="userSpaceOnUse" x1="139.1553" y1="10.5156" x2="139.1553" y2="97.4575">
			<stop  offset="0" style="stop-color:#B70E0C"/>
			<stop  offset="1" style="stop-color:#9A1915"/>
		</linearGradient>
		<polygon display="none" fill="url(#SVGID_1_)" points="118.318,94.178 128.408,97.457 159.992,53.986 128.408,10.516 
			118.318,13.794 147.52,53.986 		"/>
		<linearGradient id="SVGID_2_" gradientUnits="userSpaceOnUse" x1="164.0967" y1="10.5156" x2="164.0967" y2="97.4575">
			<stop  offset="0" style="stop-color:#B70E0C"/>
			<stop  offset="1" style="stop-color:#9A1915"/>
		</linearGradient>
		<polygon display="none" fill="url(#SVGID_2_)" points="143.26,94.178 153.35,97.457 184.934,53.986 153.35,10.516 143.26,13.794 
			172.461,53.986 		"/>
		<g>
			<polygon fill="#D39E46" points="71.105,0 20.002,16.604 20.002,27.214 67.25,11.862 104.092,62.569 110.328,53.986 			"/>
			<polygon fill="#D39E46" points="0,44.133 0,97.865 10.09,101.145 10.092,51.465 69.701,32.095 63.465,23.512 			"/>
			<polygon fill="#D39E46" points="20.002,125.396 71.105,142 77.342,133.418 30.094,118.064 30.092,55.386 20.002,58.664 			"/>
			<polygon fill="#D39E46" points="103.467,131.486 135.049,88.014 128.813,79.43 99.613,119.621 40,100.256 40.002,110.865 			"/>
		</g>
	</g>
	<g>
		<path fill="#FFFFFF" d="M207.711,40.186c3.186,0,6.238,1.063,9.074,3.159l0.742,0.547v-9.89l-0.254-0.129
			c-2.748-1.4-6.102-2.109-9.959-2.109c-6.703,0-12.168,2.08-16.242,6.178c-4.072,4.102-6.139,9.701-6.139,16.637
			c0,5.937,1.91,10.92,5.68,14.811c3.771,3.893,8.789,5.867,14.918,5.867c4.688,0,8.646-0.93,11.768-2.76l0.229-0.135v-9.365
			l-0.734,0.517c-3.129,2.206-6.238,3.325-9.24,3.325c-3.758,0-6.756-1.172-8.916-3.483c-2.164-2.317-3.262-5.549-3.262-9.606
			c0-4.138,1.158-7.471,3.441-9.906C201.092,41.416,204.084,40.186,207.711,40.186z"/>
		<path fill="#FFFFFF" d="M259.348,37.516c-3.641-3.816-8.754-5.752-15.199-5.752c-6.779,0-12.199,1.999-16.102,5.943
			c-3.902,3.943-5.881,9.42-5.881,16.279c0,6.464,1.918,11.68,5.701,15.504c3.785,3.824,8.93,5.766,15.291,5.766
			c6.6,0,11.92-2.033,15.811-6.046c3.887-4.007,5.855-9.423,5.855-16.095C264.824,46.572,262.982,41.326,259.348,37.516z
			 M243.715,66.838c-3.436,0-6.17-1.146-8.131-3.408c-1.975-2.279-2.977-5.564-2.977-9.762c0-4.305,0.996-7.672,2.963-10.004
			c1.943-2.309,4.656-3.479,8.063-3.479c3.33,0,5.979,1.117,7.873,3.324c1.908,2.228,2.877,5.566,2.877,9.92
			C254.383,62.452,250.893,66.838,243.715,66.838z"/>
		<path fill="#FFFFFF" d="M300.671,13.259v23.712c-2.568-3.457-6.338-5.207-11.225-5.207c-5.746,0-10.415,2.102-13.872,6.252
			c-3.438,4.121-5.181,9.667-5.181,16.482c0,6.375,1.591,11.479,4.728,15.164c3.156,3.713,7.375,5.594,12.542,5.594
			c5.654,0,10.023-2.172,13.008-6.461v5.471h10.086V13.259H300.671z M290.753,66.838c-3.051,0-5.408-1.074-7.209-3.279
			c-1.797-2.203-2.708-5.343-2.708-9.338c0-4.498,0.928-8.008,2.76-10.437c1.826-2.423,4.322-3.599,7.633-3.599
			c2.68,0,4.959,0.975,6.775,2.902c1.822,1.938,2.746,4.296,2.746,7.014v4.558c0,3.62-0.982,6.591-2.918,8.831
			C295.912,65.711,293.531,66.838,290.753,66.838z"/>
		<path fill="#FFFFFF" d="M356.332,51.647c0-6.112-1.6-11.003-4.754-14.538c-3.168-3.548-7.686-5.346-13.426-5.346
			c-5.416,0-10.115,2.014-13.965,5.986c-3.848,3.967-5.799,9.402-5.799,16.156c0,6.645,1.748,11.914,5.195,15.67
			c3.455,3.768,8.385,5.68,14.648,5.68c5.873,0,10.793-1.17,14.625-3.475l0.225-0.135v-8.891l-0.732,0.518
			c-3.574,2.523-7.578,3.799-11.898,3.799c-7.295,0-11.129-3.404-11.705-10.401h27.586V51.647z M332.078,42.43
			c1.736-1.7,3.779-2.563,6.074-2.563c5.338,0,8.002,2.939,8.131,8.978h-17.479C329.333,46.193,330.433,44.039,332.078,42.43z"/>
		<path fill="#FFFFFF" d="M473.47,37.532c-3.459-3.896-8.215-5.87-14.139-5.87c-6.014,0-10.939,1.98-14.645,5.887
			c-3.686,3.891-5.557,9.322-5.557,16.142c0,6.319,1.783,11.54,5.303,15.517c3.551,4.012,8.418,6.045,14.473,6.045
			c6.078,0,10.947-2.041,14.473-6.068c3.492-3.99,5.262-9.255,5.262-15.648C478.64,46.78,476.898,41.396,473.47,37.532z
			 M459.021,70.127c-4.471,0-7.887-1.445-10.445-4.418c-2.557-2.97-3.854-6.989-3.854-11.941c0-5.363,1.326-9.586,3.943-12.556
			c2.621-2.976,6.059-4.423,10.51-4.423c4.467,0,7.814,1.379,10.229,4.217c2.42,2.846,3.645,7.034,3.645,12.451
			c0,5.268-1.234,9.42-3.672,12.342C466.953,68.711,463.564,70.127,459.021,70.127z"/>
		<g>
			<g>
				<path fill="#FFFFFF" d="M395.384,44.356l-7.873-11.722h-6.061l10.873,16.277L395.384,44.356z M436,32.633l-21.163,31.499
					l3.101,4.614l24.121-36.113H436z M385.181,68.721l-24.246-36.086h-6.059l27.541,41.232l0.279,0.414h4.969l7.724-11.565
					l-3.077-4.608L385.181,68.721z"/>
			</g>
		</g>
		<polygon fill="#FFFFFF" points="401.537,53.514 415.484,32.635 409.425,32.635 395.398,53.514 409.269,74.281 415.49,74.281 		"/>
		<g>
			<g>
				<path fill="#FFFFFF" d="M542.857,32.635H536.8l-7.876,11.72l3.061,4.557L542.857,32.635z M531.998,58.108l-3.079,4.61
					l7.448,11.149l0.279,0.414h6.217L531.998,58.108z"/>
			</g>
		</g>
		<polygon fill="#FFFFFF" points="514.882,32.635 508.826,32.635 522.771,53.514 508.82,74.281 515.039,74.281 528.912,53.514 		"/>
		<path fill="#FFFFFF" d="M505.757,32.623c-1.268-0.509-2.719-0.766-4.307-0.766c-2.813,0-5.316,0.925-7.443,2.749
			c-1.143,0.977-2.123,2.171-2.934,3.574v-5.546h-5.359v41.646h5.359V54.66c0-5.743,1.02-10.211,3.033-13.28
			c1.955-2.984,4.281-4.438,7.111-4.438c1.416,0,2.611,0.364,3.65,1.108l1.473,1.057v-6.25L505.757,32.623z"/>
	</g>
	<g>
		<path fill="#FFFFFF" d="M186.328,108.809c0.594,0.387,1.645,0.799,2.649,0.799c1.462,0,2.147-0.73,2.147-1.645
			c0-0.959-0.571-1.484-2.057-2.033c-1.986-0.707-2.924-1.805-2.924-3.129c0-1.781,1.439-3.244,3.815-3.244
			c1.119,0,2.102,0.32,2.718,0.686l-0.502,1.461c-0.434-0.273-1.234-0.639-2.262-0.639c-1.188,0-1.85,0.686-1.85,1.508
			c0,0.914,0.662,1.324,2.102,1.873c1.918,0.73,2.9,1.689,2.9,3.336c0,1.941-1.508,3.311-4.135,3.311
			c-1.211,0-2.33-0.297-3.106-0.754L186.328,108.809z"/>
		<path fill="#FFFFFF" d="M205.65,105.244c0,4.09-2.832,5.871-5.505,5.871c-2.992,0-5.3-2.193-5.3-5.688
			c0-3.701,2.422-5.871,5.482-5.871C203.504,99.557,205.65,101.863,205.65,105.244z M196.879,105.359
			c0,2.422,1.394,4.248,3.357,4.248c1.92,0,3.358-1.805,3.358-4.295c0-1.873-0.937-4.248-3.312-4.248
			C197.906,101.064,196.879,103.258,196.879,105.359z"/>
		<path fill="#FFFFFF" d="M208.389,110.863v-9.525h-1.554v-1.529h1.554v-0.525c0-1.553,0.342-2.971,1.279-3.861
			c0.754-0.73,1.758-1.027,2.695-1.027c0.707,0,1.324,0.16,1.713,0.32l-0.274,1.553c-0.297-0.137-0.708-0.252-1.279-0.252
			c-1.713,0-2.147,1.508-2.147,3.199v0.594h2.673v1.529h-2.673v9.525H208.389z"/>
		<path fill="#FFFFFF" d="M217.523,96.633v3.176h2.877v1.529h-2.877v5.963c0,1.371,0.388,2.146,1.507,2.146
			c0.525,0,0.914-0.068,1.165-0.137l0.092,1.508c-0.389,0.16-1.006,0.273-1.782,0.273c-0.937,0-1.69-0.297-2.17-0.846
			c-0.571-0.594-0.776-1.574-0.776-2.877v-6.031h-1.713v-1.529h1.713v-2.65L217.523,96.633z"/>
		<path fill="#FFFFFF" d="M223.665,99.809l1.462,5.619c0.32,1.232,0.617,2.375,0.822,3.518h0.068
			c0.252-1.119,0.617-2.309,0.982-3.496l1.805-5.641h1.69l1.714,5.527c0.41,1.324,0.73,2.49,0.981,3.609h0.069
			c0.182-1.119,0.479-2.285,0.844-3.586l1.576-5.551h1.988l-3.564,11.055h-1.826l-1.691-5.275c-0.388-1.234-0.707-2.33-0.982-3.633
			h-0.045c-0.273,1.326-0.617,2.467-1.005,3.654l-1.782,5.254h-1.827l-3.335-11.055H223.665z"/>
		<path fill="#FFFFFF" d="M245.703,110.863l-0.159-1.393h-0.068c-0.616,0.867-1.805,1.645-3.381,1.645
			c-2.239,0-3.381-1.576-3.381-3.176c0-2.672,2.376-4.135,6.647-4.111V103.6c0-0.914-0.252-2.559-2.513-2.559
			c-1.028,0-2.102,0.32-2.878,0.822l-0.457-1.324c0.914-0.594,2.238-0.982,3.632-0.982c3.381,0,4.203,2.307,4.203,4.523v4.135
			c0,0.959,0.046,1.895,0.183,2.648H245.703z M245.406,105.223c-2.192-0.047-4.682,0.342-4.682,2.488c0,1.303,0.867,1.92,1.896,1.92
			c1.438,0,2.353-0.914,2.673-1.85c0.068-0.207,0.113-0.436,0.113-0.641V105.223z"/>
		<path fill="#FFFFFF" d="M250.589,103.258c0-1.303-0.022-2.422-0.091-3.449h1.758l0.068,2.17h0.092
			c0.503-1.486,1.713-2.422,3.061-2.422c0.229,0,0.389,0.023,0.572,0.068v1.896c-0.206-0.045-0.412-0.068-0.686-0.068
			c-1.416,0-2.422,1.074-2.695,2.58c-0.046,0.275-0.092,0.596-0.092,0.938v5.893h-1.987V103.258z"/>
		<path fill="#FFFFFF" d="M258.947,105.701c0.046,2.719,1.781,3.838,3.792,3.838c1.438,0,2.308-0.252,3.062-0.57l0.342,1.438
			c-0.708,0.32-1.918,0.686-3.678,0.686c-3.403,0-5.436-2.238-5.436-5.572c0-3.336,1.964-5.963,5.185-5.963
			c3.608,0,4.568,3.176,4.568,5.209c0,0.41-0.046,0.73-0.068,0.936H258.947z M264.841,104.262c0.022-1.279-0.525-3.266-2.786-3.266
			c-2.033,0-2.924,1.873-3.084,3.266H264.841z"/>
		<path fill="#FFFFFF" d="M283.658,94.645v13.363c0,0.982,0.023,2.102,0.092,2.855h-1.804l-0.092-1.918h-0.045
			c-0.617,1.234-1.965,2.17-3.77,2.17c-2.672,0-4.729-2.262-4.729-5.619c-0.022-3.678,2.262-5.939,4.957-5.939
			c1.691,0,2.832,0.799,3.336,1.689h0.045v-6.602H283.658z M281.648,104.309c0-0.252-0.023-0.594-0.092-0.846
			c-0.297-1.279-1.393-2.33-2.9-2.33c-2.078,0-3.313,1.828-3.313,4.271c0,2.238,1.096,4.088,3.266,4.088
			c1.35,0,2.582-0.891,2.947-2.398c0.068-0.273,0.092-0.547,0.092-0.867V104.309z"/>
		<path fill="#FFFFFF" d="M288.109,105.701c0.045,2.719,1.781,3.838,3.791,3.838c1.439,0,2.309-0.252,3.063-0.57l0.342,1.438
			c-0.707,0.32-1.918,0.686-3.678,0.686c-3.402,0-5.436-2.238-5.436-5.572c0-3.336,1.963-5.963,5.186-5.963
			c3.607,0,4.568,3.176,4.568,5.209c0,0.41-0.047,0.73-0.07,0.936H288.109z M294.001,104.262c0.023-1.279-0.525-3.266-2.785-3.266
			c-2.033,0-2.924,1.873-3.084,3.266H294.001z"/>
		<path fill="#FFFFFF" d="M299.208,99.809l2.17,6.213c0.365,1.006,0.662,1.918,0.891,2.832h0.068
			c0.252-0.914,0.57-1.826,0.936-2.832l2.148-6.213h2.102l-4.34,11.055h-1.92l-4.203-11.055H299.208z"/>
		<path fill="#FFFFFF" d="M310.306,105.701c0.045,2.719,1.781,3.838,3.791,3.838c1.439,0,2.309-0.252,3.063-0.57l0.342,1.438
			c-0.707,0.32-1.918,0.686-3.678,0.686c-3.402,0-5.436-2.238-5.436-5.572c0-3.336,1.963-5.963,5.186-5.963
			c3.607,0,4.568,3.176,4.568,5.209c0,0.41-0.047,0.73-0.07,0.936H310.306z M316.199,104.262c0.023-1.279-0.525-3.266-2.785-3.266
			c-2.033,0-2.924,1.873-3.084,3.266H316.199z"/>
		<path fill="#FFFFFF" d="M320.628,94.645h2.01v16.219h-2.01V94.645z"/>
		<path fill="#FFFFFF" d="M336.023,105.244c0,4.09-2.834,5.871-5.506,5.871c-2.992,0-5.299-2.193-5.299-5.688
			c0-3.701,2.42-5.871,5.482-5.871C333.875,99.557,336.023,101.863,336.023,105.244z M327.251,105.359
			c0,2.422,1.393,4.248,3.357,4.248c1.918,0,3.357-1.805,3.357-4.295c0-1.873-0.938-4.248-3.313-4.248
			S327.251,103.258,327.251,105.359z"/>
		<path fill="#FFFFFF" d="M338.554,103.418c0-1.418-0.045-2.559-0.092-3.609h1.805l0.092,1.895h0.045
			c0.822-1.348,2.125-2.146,3.93-2.146c2.672,0,4.682,2.262,4.682,5.619c0,3.975-2.42,5.939-5.025,5.939
			c-1.461,0-2.74-0.639-3.402-1.736h-0.047v6.008h-1.986V103.418z M340.541,106.363c0,0.297,0.047,0.572,0.092,0.822
			c0.365,1.395,1.576,2.354,3.016,2.354c2.125,0,3.357-1.736,3.357-4.271c0-2.217-1.164-4.111-3.289-4.111
			c-1.371,0-2.65,0.982-3.037,2.488c-0.068,0.252-0.139,0.549-0.139,0.824V106.363z"/>
		<path fill="#FFFFFF" d="M351.548,102.801c0-1.143-0.023-2.078-0.092-2.992h1.76l0.092,1.781h0.068
			c0.615-1.051,1.645-2.033,3.471-2.033c1.508,0,2.65,0.914,3.131,2.217h0.045c0.342-0.617,0.777-1.098,1.234-1.439
			c0.662-0.502,1.393-0.777,2.443-0.777c1.461,0,3.631,0.959,3.631,4.797v6.51h-1.963v-6.258c0-2.125-0.777-3.404-2.398-3.404
			c-1.143,0-2.033,0.846-2.377,1.828c-0.09,0.273-0.16,0.639-0.16,1.004v6.83h-1.963v-6.625c0-1.758-0.777-3.037-2.309-3.037
			c-1.256,0-2.17,1.006-2.488,2.01c-0.115,0.297-0.16,0.641-0.16,0.982v6.67h-1.965V102.801z"/>
		<path fill="#FFFFFF" d="M371.712,105.701c0.045,2.719,1.781,3.838,3.791,3.838c1.439,0,2.309-0.252,3.063-0.57l0.342,1.438
			c-0.707,0.32-1.918,0.686-3.678,0.686c-3.402,0-5.436-2.238-5.436-5.572c0-3.336,1.963-5.963,5.186-5.963
			c3.607,0,4.568,3.176,4.568,5.209c0,0.41-0.047,0.73-0.07,0.936H371.712z M377.605,104.262c0.023-1.279-0.525-3.266-2.785-3.266
			c-2.033,0-2.924,1.873-3.084,3.266H377.605z"/>
		<path fill="#FFFFFF" d="M382.035,102.801c0-1.143-0.023-2.078-0.092-2.992h1.781l0.115,1.826h0.045
			c0.549-1.051,1.828-2.078,3.656-2.078c1.529,0,3.904,0.914,3.904,4.705v6.602h-2.01v-6.373c0-1.781-0.662-3.266-2.559-3.266
			c-1.324,0-2.352,0.936-2.695,2.057c-0.09,0.25-0.137,0.594-0.137,0.936v6.646h-2.01V102.801z"/>
		<path fill="#FFFFFF" d="M397.039,96.633v3.176h2.879v1.529h-2.879v5.963c0,1.371,0.389,2.146,1.508,2.146
			c0.525,0,0.914-0.068,1.166-0.137l0.09,1.508c-0.387,0.16-1.004,0.273-1.781,0.273c-0.936,0-1.689-0.297-2.17-0.846
			c-0.57-0.594-0.777-1.574-0.777-2.877v-6.031h-1.713v-1.529h1.713v-2.65L397.039,96.633z"/>
		<path fill="#FFFFFF" d="M413.138,110.863l-0.16-1.393h-0.068c-0.615,0.867-1.805,1.645-3.381,1.645
			c-2.238,0-3.379-1.576-3.379-3.176c0-2.672,2.375-4.135,6.646-4.111V103.6c0-0.914-0.252-2.559-2.514-2.559
			c-1.027,0-2.102,0.32-2.877,0.822l-0.457-1.324c0.914-0.594,2.238-0.982,3.631-0.982c3.381,0,4.203,2.307,4.203,4.523v4.135
			c0,0.959,0.047,1.895,0.184,2.648H413.138z M412.841,105.223c-2.191-0.047-4.682,0.342-4.682,2.488c0,1.303,0.867,1.92,1.895,1.92
			c1.439,0,2.354-0.914,2.674-1.85c0.068-0.207,0.113-0.436,0.113-0.641V105.223z"/>
		<path fill="#FFFFFF" d="M418.025,102.801c0-1.143-0.023-2.078-0.092-2.992h1.781l0.115,1.826h0.045
			c0.549-1.051,1.828-2.078,3.656-2.078c1.529,0,3.904,0.914,3.904,4.705v6.602h-2.01v-6.373c0-1.781-0.662-3.266-2.559-3.266
			c-1.324,0-2.352,0.936-2.695,2.057c-0.09,0.25-0.137,0.594-0.137,0.936v6.646h-2.01V102.801z"/>
		<path fill="#FFFFFF" d="M440.248,94.645v13.363c0,0.982,0.021,2.102,0.09,2.855h-1.805l-0.09-1.918h-0.047
			c-0.615,1.234-1.963,2.17-3.768,2.17c-2.674,0-4.729-2.262-4.729-5.619c-0.023-3.678,2.262-5.939,4.957-5.939
			c1.689,0,2.832,0.799,3.334,1.689h0.045v-6.602H440.248z M438.236,104.309c0-0.252-0.021-0.594-0.09-0.846
			c-0.297-1.279-1.395-2.33-2.902-2.33c-2.078,0-3.311,1.828-3.311,4.271c0,2.238,1.096,4.088,3.266,4.088
			c1.348,0,2.582-0.891,2.947-2.398c0.068-0.273,0.09-0.547,0.09-0.867V104.309z"/>
		<path fill="#FFFFFF" d="M456.3,110.453c-0.525,0.273-1.691,0.639-3.176,0.639c-3.334,0-5.504-2.262-5.504-5.643
			c0-3.402,2.33-5.869,5.938-5.869c1.189,0,2.24,0.297,2.787,0.57l-0.457,1.553c-0.479-0.273-1.232-0.523-2.33-0.523
			c-2.535,0-3.904,1.871-3.904,4.18c0,2.559,1.645,4.133,3.836,4.133c1.143,0,1.896-0.297,2.467-0.547L456.3,110.453z"/>
		<path fill="#FFFFFF" d="M468.519,105.244c0,4.09-2.834,5.871-5.506,5.871c-2.992,0-5.299-2.193-5.299-5.688
			c0-3.701,2.42-5.871,5.482-5.871C466.371,99.557,468.519,101.863,468.519,105.244z M459.748,105.359
			c0,2.422,1.393,4.248,3.357,4.248c1.918,0,3.357-1.805,3.357-4.295c0-1.873-0.938-4.248-3.313-4.248
			S459.748,103.258,459.748,105.359z"/>
		<path fill="#FFFFFF" d="M471.05,102.801c0-1.143-0.023-2.078-0.092-2.992h1.781l0.115,1.826h0.045
			c0.549-1.051,1.828-2.078,3.656-2.078c1.529,0,3.904,0.914,3.904,4.705v6.602h-2.01v-6.373c0-1.781-0.662-3.266-2.559-3.266
			c-1.324,0-2.352,0.936-2.695,2.057c-0.09,0.25-0.137,0.594-0.137,0.936v6.646h-2.01V102.801z"/>
		<path fill="#FFFFFF" d="M483.451,108.809c0.594,0.387,1.645,0.799,2.65,0.799c1.461,0,2.146-0.73,2.146-1.645
			c0-0.959-0.57-1.484-2.055-2.033c-1.988-0.707-2.924-1.805-2.924-3.129c0-1.781,1.438-3.244,3.814-3.244
			c1.119,0,2.102,0.32,2.717,0.686l-0.502,1.461c-0.434-0.273-1.232-0.639-2.262-0.639c-1.188,0-1.85,0.686-1.85,1.508
			c0,0.914,0.662,1.324,2.102,1.873c1.918,0.73,2.9,1.689,2.9,3.336c0,1.941-1.508,3.311-4.135,3.311
			c-1.209,0-2.328-0.297-3.105-0.754L483.451,108.809z"/>
		<path fill="#FFFFFF" d="M502.019,107.848c0,1.143,0.023,2.148,0.092,3.016h-1.781l-0.115-1.805h-0.045
			c-0.525,0.891-1.691,2.057-3.654,2.057c-1.736,0-3.816-0.959-3.816-4.842v-6.465h2.012v6.121c0,2.102,0.639,3.518,2.467,3.518
			c1.348,0,2.283-0.936,2.648-1.826c0.115-0.297,0.184-0.664,0.184-1.029v-6.783h2.01V107.848z"/>
		<path fill="#FFFFFF" d="M505.351,94.645h2.01v16.219h-2.01V94.645z"/>
		<path fill="#FFFFFF" d="M513.162,96.633v3.176h2.879v1.529h-2.879v5.963c0,1.371,0.389,2.146,1.508,2.146
			c0.525,0,0.914-0.068,1.166-0.137l0.09,1.508c-0.387,0.16-1.004,0.273-1.781,0.273c-0.936,0-1.689-0.297-2.17-0.846
			c-0.57-0.594-0.777-1.574-0.777-2.877v-6.031h-1.713v-1.529h1.713v-2.65L513.162,96.633z"/>
		<path fill="#FFFFFF" d="M520.539,96.701c0.021,0.686-0.48,1.234-1.279,1.234c-0.709,0-1.211-0.549-1.211-1.234
			c0-0.709,0.525-1.256,1.256-1.256C520.058,95.445,520.539,95.992,520.539,96.701z M518.3,110.863V99.809h2.01v11.055H518.3z"/>
		<path fill="#FFFFFF" d="M523.644,102.801c0-1.143-0.023-2.078-0.092-2.992h1.781l0.113,1.826h0.047
			c0.549-1.051,1.826-2.078,3.654-2.078c1.531,0,3.906,0.914,3.906,4.705v6.602h-2.01v-6.373c0-1.781-0.662-3.266-2.559-3.266
			c-1.324,0-2.354,0.936-2.695,2.057c-0.092,0.25-0.137,0.594-0.137,0.936v6.646h-2.01V102.801z"/>
		<path fill="#FFFFFF" d="M545.841,99.809c-0.045,0.799-0.09,1.689-0.09,3.037v6.42c0,2.535-0.504,4.088-1.576,5.047
			c-1.074,1.006-2.627,1.324-4.021,1.324c-1.324,0-2.787-0.318-3.678-0.912l0.504-1.531c0.73,0.457,1.873,0.869,3.242,0.869
			c2.057,0,3.564-1.074,3.564-3.861v-1.232h-0.047c-0.615,1.027-1.803,1.85-3.518,1.85c-2.74,0-4.705-2.33-4.705-5.391
			c0-3.746,2.445-5.871,4.98-5.871c1.918,0,2.969,1.006,3.449,1.92h0.045l0.092-1.668H545.841z M543.763,104.172
			c0-0.344-0.023-0.641-0.113-0.914c-0.365-1.166-1.348-2.125-2.811-2.125c-1.918,0-3.289,1.621-3.289,4.18
			c0,2.17,1.096,3.975,3.266,3.975c1.234,0,2.354-0.775,2.787-2.055c0.115-0.344,0.16-0.732,0.16-1.074V104.172z"/>
	</g>
</g>
<g>
</g>
<g>
</g>
<g>
</g>
<g>
</g>
<g>
</g>
<g>
</g>
<g>
</g>
<g>
</g>
<g>
</g>
<g>
</g>
<g>
</g>
<g>
</g>
<g>
</g>
<g>
</g>
<g>
</g>
</svg>
